<?xml version="1.0" standalone="no"?>
<!DOCTYPE svg PUBLIC "-//W3C//DTD SVG 20010904//EN"
 "http://www.w3.org/TR/2001/REC-SVG-20010904/DTD/svg10.dtd">
<svg version="1.0" xmlns="http://www.w3.org/2000/svg"
 width="700.000000pt" height="700.000000pt" viewBox="0 0 700.000000 700.000000"
 preserveAspectRatio="xMidYMid meet">
<metadata>
Created by potrace 1.14, written by Peter Selinger 2001-2017
</metadata>
<g transform="translate(0.000000,700.000000) scale(0.100000,-0.100000)"
fill="#000000" stroke="none">
<path d="M694 6966 l-34 -34 0 -406 0 -406 55 0 55 0 0 -143 0 -144 -92 -58
c-123 -77 -302 -210 -328 -242 -13 -17 -20 -41 -20 -69 l0 -43 -152 -103 c-86
-58 -158 -114 -165 -128 -10 -20 -13 -484 -13 -2187 l0 -2163 29 -32 29 -33
299 -5 298 -5 5 -353 5 -354 33 -29 32 -29 2770 0 2770 0 32 29 33 29 5 354 5
353 298 5 299 5 29 33 29 32 0 2163 c0 1704 -3 2167 -13 2187 -7 14 -78 69
-162 126 l-150 101 -6 52 c-4 28 -13 59 -20 68 -22 26 -244 188 -336 245 l-83
51 0 143 0 144 55 0 55 0 0 406 0 406 -34 34 -34 34 -2772 0 -2772 0 -34 -34z
m1662 -976 c340 -58 713 -252 972 -504 l62 -60 0 -1903 0 -1902 -62 36 c-107
62 -357 179 -498 231 -225 84 -445 140 -680 174 -140 19 -549 16 -715 -6 -240
-32 -539 -103 -705 -167 -30 -11 -83 -32 -117 -45 l-63 -23 0 1799 0 1798 68
50 c327 242 748 437 1094 506 166 33 160 33 355 35 131 1 198 -4 289 -19z
m2933 -14 c358 -77 744 -255 1081 -499 l80 -58 0 -1799 0 -1800 -52 21 c-453
182 -1012 270 -1453 229 -402 -37 -824 -170 -1217 -384 l-118 -64 0 1903 0
1903 68 63 c37 35 86 79 110 97 l42 34 0 -1716 0 -1716 110 0 110 0 2 1793 3
1792 115 58 c128 65 287 119 429 147 143 29 140 28 361 25 176 -2 222 -6 329
-29z m-4921 -4417 c44 -40 72 -37 188 17 354 165 688 250 1086 276 565 38
1129 -116 1704 -463 71 -43 141 -79 155 -79 14 0 64 25 112 55 549 344 1112
511 1662 492 420 -15 766 -97 1152 -273 140 -64 173 -66 217 -13 l26 31 0
1774 c0 976 2 1774 5 1774 3 0 28 -15 55 -32 l50 -33 0 -1919 c0 -1810 -1
-1918 -17 -1912 -99 38 -420 126 -603 165 -445 95 -947 132 -1190 88 -359 -66
-678 -205 -937 -408 l-62 -48 -53 36 c-126 85 -237 116 -423 116 -178 0 -287
-31 -412 -116 l-52 -35 -38 30 c-78 63 -252 172 -363 228 -261 131 -531 203
-805 217 -274 13 -772 -51 -1176 -152 -117 -30 -359 -100 -412 -121 -16 -6
-17 101 -17 1910 l0 1915 53 36 52 35 5 -1781 5 -1781 33 -29z m1550 -370
c194 -21 423 -84 577 -159 l80 -38 -1045 0 -1045 0 85 24 c305 86 621 144 980
177 83 8 278 6 368 -4z m3577 1 c163 -14 371 -45 544 -81 140 -28 462 -107
470 -115 2 -2 -465 -4 -1039 -4 -582 0 -1040 4 -1034 9 21 19 216 95 324 126
103 29 252 59 350 68 78 8 272 6 385 -3z"/>
<path d="M1690 5344 c-245 -53 -398 -256 -376 -501 28 -305 220 -541 466 -573
97 -12 603 -12 698 0 334 44 481 433 250 667 -78 79 -146 106 -288 113 -124 7
-150 14 -150 37 0 82 -86 185 -185 223 -128 48 -290 61 -415 34z m280 -226
c77 -19 100 -34 100 -70 0 -48 38 -116 82 -148 64 -47 159 -73 269 -75 111 -2
145 -18 179 -85 34 -67 23 -129 -33 -189 -58 -60 -62 -61 -439 -61 -339 0
-344 0 -394 24 -82 38 -157 144 -183 257 -15 63 -13 184 3 222 27 65 107 122
195 137 52 10 154 4 221 -12z"/>
<path d="M1750 4925 l0 -115 110 0 110 0 0 115 0 115 -110 0 -110 0 0 -115z"/>
<path d="M1860 3975 c0 -84 4 -81 -85 -60 -33 8 -102 18 -152 21 l-93 7 0
-110 0 -110 83 -6 c46 -4 98 -10 116 -13 30 -6 28 -8 -37 -30 -38 -13 -96 -39
-128 -58 -65 -38 -161 -132 -189 -185 -85 -166 -83 -364 7 -551 33 -68 57
-100 127 -170 132 -132 271 -191 451 -191 120 -1 188 15 299 68 312 150 454
540 305 835 -41 82 -136 173 -226 218 -44 22 -90 40 -101 40 -14 0 -18 3 -11
10 6 6 49 16 97 22 l87 12 0 109 0 110 -75 -7 c-67 -6 -191 -33 -237 -51 -16
-6 -18 1 -18 79 l0 86 -110 0 -110 0 0 -75z m425 -574 c74 -42 99 -140 48
-181 -87 -68 -242 86 -178 177 25 36 72 37 130 4z"/>
<path d="M4785 5134 c-174 -17 -253 -28 -335 -46 -116 -25 -217 -55 -225 -68
-5 -9 80 -190 90 -190 3 0 47 11 99 24 143 38 283 56 481 63 344 11 723 -47
1075 -167 63 -21 115 -38 116 -37 7 13 74 190 74 196 0 10 -219 85 -350 120
-107 29 -306 67 -445 86 -113 16 -491 28 -580 19z"/>
<path d="M4760 4803 c-204 -19 -347 -45 -472 -84 -38 -12 -68 -26 -68 -31 0
-11 89 -188 95 -188 2 0 44 11 92 25 138 38 281 56 508 62 161 4 244 1 355
-11 243 -29 483 -81 689 -151 58 -19 110 -35 117 -35 7 0 29 43 50 96 32 80
36 97 23 105 -24 15 -248 86 -374 118 -272 68 -541 102 -805 99 -96 -1 -191
-3 -210 -5z"/>
<path d="M4680 4469 c-164 -17 -460 -85 -460 -105 0 -4 89 -185 94 -191 1 -1
31 6 67 17 197 59 602 88 861 61 241 -26 530 -88 728 -157 55 -18 103 -34 108
-34 13 0 86 190 76 200 -17 17 -286 99 -436 134 -271 62 -402 78 -693 81 -143
2 -298 -1 -345 -6z"/>
<path d="M4224 3711 c-12 -5 -31 -22 -44 -38 -21 -26 -22 -35 -17 -148 10
-244 84 -425 240 -591 176 -187 431 -299 697 -306 146 -4 172 52 135 292 -23
153 -82 304 -160 410 -42 57 -156 167 -215 207 -102 69 -249 130 -383 158 -88
19 -226 28 -253 16z m601 -436 c40 -40 84 -97 103 -133 18 -34 32 -62 30 -62
-2 0 -77 75 -168 166 l-165 166 65 -33 c39 -21 92 -62 135 -104z m-210 -176
c154 -156 158 -160 105 -133 -69 36 -206 172 -243 242 -16 29 -27 52 -25 52 2
0 75 -73 163 -161z"/>
<path d="M5198 3704 c-59 -32 -70 -99 -43 -277 40 -269 171 -483 378 -620 163
-108 368 -174 554 -179 77 -2 112 12 134 54 18 33 5 246 -21 343 -29 110 -108
267 -174 347 -144 174 -371 295 -622 333 -123 19 -171 18 -206 -1z m481 -326
c76 -43 198 -168 239 -245 18 -35 32 -63 30 -63 -2 0 -80 77 -173 170 -93 94
-166 170 -161 170 5 0 34 -14 65 -32z m-79 -284 c120 -121 146 -152 114 -134
-70 38 -151 108 -199 172 -42 56 -80 118 -73 118 2 0 73 -70 158 -156z"/>
</g>
</svg>
